<svg version="1.1" id="Layer_1" xmlns="http://www.w3.org/2000/svg" xmlns:xlink="http://www.w3.org/1999/xlink" x="0px" y="0px"
	 width="100%" viewBox="0 0 512 512" enable-background="new 0 0 512 512" xml:space="preserve">
<path fill="#000000" opacity="1.000000" stroke="none" 
	d="
M513.000000,342.531372 
	C511.090027,342.206451 509.073547,342.369415 507.082611,342.369232 
	C469.945282,342.366241 432.807434,342.466888 395.671234,342.265137 
	C390.605743,342.237610 389.242798,343.656128 389.195374,348.712830 
	C389.096161,359.297882 390.849091,370.018341 387.755920,380.465271 
	C381.549866,401.425507 367.430206,414.003082 346.476044,419.293549 
	C342.583069,420.276428 338.617279,420.382507 334.616669,420.379944 
	C282.491180,420.346832 230.365692,420.352905 178.240204,420.363312 
	C162.268219,420.366516 148.742081,414.571747 137.910019,402.908844 
	C128.661743,392.951172 123.546242,381.178101 123.639565,367.374146 
	C123.693451,359.405304 123.649353,351.435822 123.649353,342.233185 
	C83.292259,342.233185 42.602802,342.233185 1.456672,342.116577 
	C1.000000,332.979095 1.000000,323.958221 1.000000,314.468658 
	C4.099941,309.388550 4.552267,303.821350 6.429689,298.761627 
	C16.635590,271.256378 35.526249,252.039413 61.848984,239.739471 
	C63.497337,238.969223 65.190773,238.295441 67.568947,237.273544 
	C49.909286,222.793137 42.683704,204.206329 44.764969,182.113663 
	C46.042412,168.553558 52.037193,156.759171 61.673172,147.433853 
	C85.090950,124.770981 120.442383,125.272896 143.209045,145.243591 
	C157.079498,157.410599 163.129395,173.304779 162.711441,191.737564 
	C162.293777,210.157196 154.238220,224.827560 139.696671,237.085083 
	C147.928314,240.846420 155.217804,244.273941 161.853638,248.858047 
	C162.535126,249.328812 163.340973,249.619324 164.023453,250.088898 
	C171.653641,255.338913 171.609818,255.286255 179.355057,249.873108 
	C190.144104,242.332611 201.792313,236.415466 215.100433,231.850739 
	C188.859283,211.467194 177.199326,185.497437 183.171371,153.122162 
	C186.367264,135.796707 195.178848,120.977226 209.203369,110.065201 
	C243.213333,83.603180 288.508881,90.082306 313.697296,119.786629 
	C327.931702,136.573090 333.623505,156.471115 330.522736,178.737640 
	C327.433105,200.924133 316.165894,217.894577 297.970703,231.484009 
	C303.826050,234.054779 309.065643,236.315857 314.272491,238.650055 
	C323.115906,242.614487 331.267395,247.717575 338.810486,253.790146 
	C340.418945,255.085052 341.877747,256.480164 344.023285,254.683655 
	C352.747864,247.378357 362.621796,241.982315 374.253815,237.286865 
	C353.303375,219.131348 346.442169,197.057602 353.820831,171.164780 
	C357.807617,157.174622 366.719299,146.458633 379.142792,139.038239 
	C405.312103,123.407646 436.351013,129.754410 453.654877,148.770035 
	C478.081390,175.612854 473.542480,214.944336 446.729401,237.155853 
	C454.275635,240.543808 461.547760,244.053772 468.262451,248.615784 
	C490.395996,263.653687 504.382874,284.350494 511.167542,310.072937 
	C511.880859,312.777252 512.245300,315.573639 512.885803,318.663635 
	C513.000000,326.687592 513.000000,334.375153 513.000000,342.531372 
M229.932449,246.556366 
	C228.188385,247.072281 226.444794,247.589767 224.700195,248.103836 
	C201.944092,254.809235 182.899384,267.233978 167.695923,285.424469 
	C161.831818,292.440704 156.813644,300.099976 152.847595,308.348114 
	C143.893585,326.969635 140.064697,346.663269 141.382538,367.281891 
	C142.240524,380.705658 148.864182,390.844604 160.317795,397.575775 
	C167.166977,401.600952 174.940994,402.668610 182.865524,402.663483 
	C230.177444,402.632751 277.489410,402.657501 324.801361,402.636139 
	C329.936920,402.633820 335.029327,402.522369 340.180298,401.783325 
	C354.909027,399.670105 368.101166,387.348389 370.679413,372.815491 
	C372.892090,360.343201 371.902405,347.940521 369.282166,335.750702 
	C363.303497,307.936951 349.173950,284.947021 326.478821,267.672516 
	C297.924042,245.937881 265.908752,238.873947 229.932449,246.556366 
M213.832138,205.633133 
	C227.434830,220.749496 244.094772,227.652039 264.522278,224.670135 
	C291.970245,220.663376 315.815796,194.358566 312.842163,163.825195 
	C311.183929,146.798309 303.642151,133.607315 290.394348,123.380455 
	C263.843933,102.884453 228.483963,110.286835 210.030594,135.681076 
	C195.155594,156.151001 195.610168,185.289688 213.832138,205.633133 
M459.690613,264.882904 
	C447.540955,256.245239 434.019684,250.832642 419.240692,249.491669 
	C398.031799,247.567322 378.372833,252.405487 360.844147,264.943451 
	C355.689056,268.630798 355.467041,269.581543 359.419250,274.236206 
	C371.076935,287.965820 379.272888,303.570648 384.290192,320.829071 
	C385.076630,323.534271 386.315643,324.681824 389.129486,324.677979 
	C422.944824,324.631805 456.760315,324.620789 490.575531,324.700714 
	C494.047516,324.708923 495.103851,323.157959 494.535461,320.102539 
	C490.302612,297.348633 478.584076,279.263214 459.690613,264.882904 
M100.554619,249.344589 
	C56.964252,249.885956 21.768852,286.298309 19.179018,323.973724 
	C20.322636,324.925751 21.710262,324.634735 23.007769,324.635559 
	C56.327454,324.656708 89.647339,324.607483 122.966568,324.735077 
	C126.296844,324.747833 127.700043,323.413269 128.566193,320.499481 
	C132.182693,308.333313 137.409805,296.928314 144.287460,286.210815 
	C148.203491,280.108429 152.973846,274.680725 157.429535,268.710907 
	C140.905151,255.418549 122.577301,248.490997 100.554619,249.344589 
M64.877869,203.718246 
	C65.403336,206.592514 67.317200,208.765244 68.677559,211.215561 
	C76.374283,225.079239 95.428604,233.324371 110.886528,230.075470 
	C132.065689,225.624100 148.025391,204.610428 143.787918,181.899567 
	C140.577652,164.694077 123.071739,148.895996 105.577179,148.301392 
	C77.043289,147.331619 54.628567,175.117828 64.877869,203.718246 
M430.665375,225.189011 
	C435.993439,222.236832 440.169342,218.055405 443.694489,213.138016 
	C456.296509,195.558762 453.619171,172.976318 437.717468,159.193115 
	C419.152100,143.101135 396.454773,144.699997 379.541199,162.652039 
	C364.567139,178.545471 365.751801,204.802734 382.191010,219.391495 
	C396.575195,232.156601 412.664917,234.442337 430.665375,225.189011 
z"/>
</svg>